<svg xmlns="http://www.w3.org/2000/svg" viewBox="0 0 64 64" width="64" height="64">
  <rect width="64" height="64" rx="12" fill="#0d1b2e"/>
  <circle cx="32" cy="32" r="22" fill="none" stroke="#2255a4" stroke-width="1.5"/>
  <ellipse cx="32" cy="32" rx="22" ry="8" fill="none" stroke="#1a3a5c" stroke-width="0.8"/>
  <line x1="10" y1="32" x2="54" y2="32" stroke="#1a3a5c" stroke-width="0.6"/>
  <path d="M 12 46 Q 24 12 52 18" fill="none" stroke="#4a9eff" stroke-width="1.8" stroke-dasharray="4 3" stroke-linecap="round"/>
  <circle cx="12" cy="46" r="2" fill="#4a9eff"/>
  <circle cx="52" cy="18" r="2" fill="#4a9eff"/>
  <g transform="translate(34,30) rotate(-30)">
    <path d="M -9,0 Q -8,-2.5 0,-2.5 Q 8,-2 10,0 Q 8,2 0,2.5 Q -8,2.5 -9,0 Z" fill="#dce8f8"/>
    <path d="M 10,0 Q 13,-1 15,0 Q 13,1 10,0 Z" fill="#c8d8ee"/>
    <path d="M 1,-2.5 L -2,-2.5 L -8,-12 L -4,-11 L 1,-2.5 Z" fill="#b8cce0"/>
    <path d="M 1,2.5 L -2,2.5 L -8,12 L -4,11 L 1,2.5 Z" fill="#b8cce0"/>
    <path d="M -7,-2.5 L -8,-2.5 L -11,-7 L -9,-6.5 Z" fill="#a8bcd0"/>
    <path d="M -7,2.5 L -8,2.5 L -11,7 L -9,6.5 Z" fill="#a8bcd0"/>
    <path d="M -9,0 L -10,-1 L -13,-6 L -11,-2 Z" fill="#a8bcd0"/>
  </g>
</svg>
